<svg width="467" height="116" viewBox="0 0 467 116" fill="none" xmlns="http://www.w3.org/2000/svg">
<g clip-path="url(#clip0)">
<path d="M89.6667 74.6144C89.6667 56.2631 55.942 24.7675 55.942 24.7675C55.942 24.7675 22.2172 56.2631 22.2172 74.6144C22.2172 92.9677 37.3174 107.847 55.942 107.847C74.5665 107.847 89.6667 92.9677 89.6667 74.6144Z" fill="#00F2A9"/>
<path d="M56.2523 4.00981L56.4075 4.02552L56.5627 4.04514L56.7178 4.07066L56.8709 4.10206L57.0239 4.13935L57.177 4.18057L57.3257 4.22964L57.4745 4.28263L57.6212 4.34347L57.7679 4.40824L57.9103 4.4789L58.0506 4.55741L58.1887 4.63984L58.3248 4.7262L58.4566 4.82041L58.5862 4.92051L58.7138 5.0265L58.8371 5.13641L59.158 5.4367L59.5768 5.83317L60.0912 6.32385L60.6906 6.90088L61.375 7.56624L62.1339 8.31403L62.965 9.14033L63.862 10.0412L64.8164 11.0147L65.8282 12.0569L66.8888 13.1639L67.9899 14.3317L69.1313 15.5584L70.3047 16.84L71.5035 18.1727L72.7236 19.5525L73.9607 20.9774L75.2063 22.4436L76.4562 23.947L77.706 25.4838L78.9495 27.05L80.1781 28.6457L81.3918 30.263L82.58 31.8999L83.7406 33.5545L84.865 35.2228L85.9512 36.8989L86.9906 38.5829L87.979 40.2669L88.91 41.9529L89.7794 43.633L90.5808 45.3072L91.3099 46.9696L91.9582 48.6163L92.5236 50.2453L92.9976 51.8528L93.3759 53.4367L93.6523 54.9912L93.8245 56.5123L93.8818 58L93.8542 59.4347L93.7713 60.8557L93.6374 62.261L93.4482 63.6526L93.2102 65.0265L92.9189 66.3827L92.581 67.7213L92.192 69.0402L91.7562 70.3395L91.2758 71.6153L90.7487 72.8714L90.1769 74.1021L89.5626 75.3091L88.9037 76.4907L88.2044 77.6467L87.4646 78.7753L86.6867 79.8764L85.8683 80.946L85.0138 81.9882L84.1211 82.9971L83.1943 83.9745L82.2335 84.9185L81.2388 85.8292L80.21 86.7046L79.1514 87.5427L78.061 88.3454L76.9429 89.1089L75.7951 89.8351L74.6196 90.5201L73.4166 91.1639L72.1901 91.7664L70.9381 92.3258L69.6627 92.842L68.364 93.3111L67.044 93.737L65.7027 94.1158L64.3445 94.4455L62.965 94.7262L61.5685 94.9578L60.157 95.1403V107.847L60.1528 108.018L60.1422 108.188L60.1252 108.355L60.1018 108.522L60.072 108.685L60.0338 108.846L59.9913 109.005L59.9424 109.16L59.8871 109.315L59.8255 109.464L59.7596 109.613L59.6873 109.757L59.6086 109.898L59.5257 110.035L59.4386 110.171L59.3451 110.302L59.2452 110.428L59.1431 110.552L59.0347 110.671L58.9221 110.785L58.8073 110.895L58.6861 111.001L58.5607 111.103L58.4311 111.199L58.2993 111.291L58.1632 111.38L58.0229 111.46L57.8805 111.537L57.7339 111.609L57.5829 111.674L57.4299 111.735L57.2747 111.79L57.1153 111.837L56.9559 111.88L56.7922 111.916L56.6264 111.947L56.4585 111.971L56.2863 111.986L56.1142 111.998L55.942 112L55.7677 111.998L55.5955 111.986L55.4255 111.971L55.2575 111.947L55.0896 111.916L54.9281 111.88L54.7665 111.837L54.6071 111.79L54.4519 111.735L54.2989 111.674L54.1501 111.609L54.0034 111.537L53.8589 111.46L53.7186 111.38L53.5826 111.291L53.4508 111.199L53.3211 111.103L53.1957 111.001L53.0767 110.895L52.9598 110.785L52.8471 110.671L52.7387 110.552L52.6367 110.428L52.5389 110.302L52.4454 110.171L52.3561 110.035L52.2732 109.898L52.1945 109.757L52.1223 109.613L52.0564 109.464L51.9947 109.315L51.9395 109.16L51.8906 109.005L51.8481 108.846L51.8119 108.685L51.7801 108.522L51.7567 108.355L51.7397 108.188L51.729 108.018L51.7248 107.847V95.1403L50.3134 94.9578L48.9169 94.7262L47.5395 94.4455L46.1791 94.1158L44.8378 93.737L43.5178 93.3111L42.2212 92.842L40.9459 92.3258L39.6939 91.7664L38.4653 91.1639L37.2643 90.5201L36.0889 89.8351L34.941 89.1089L33.8209 88.3454L32.7304 87.5427L31.6719 86.7046L30.6452 85.8292L29.6483 84.9185L28.6875 83.9745L27.7608 82.9971L26.868 81.9882L26.0135 80.946L25.1952 79.8764L24.4172 78.7753L23.6775 77.6467L22.9782 76.4907L22.3213 75.3091L21.7049 74.1021L21.1331 72.8714L20.606 71.6153L20.1256 70.3395L19.6899 69.0402L19.303 67.7213L18.9629 66.3827L18.6738 65.0265L18.4336 63.6526L18.2466 62.261L18.1105 60.8557L18.0276 59.4347L18 58L18.0595 56.5123L18.2296 54.9912L18.5059 53.4367L18.8843 51.8528L19.3583 50.2453L19.9237 48.6163L20.572 46.9696L21.3011 45.3072L22.1024 43.633L22.9718 41.9529L23.9028 40.2669L24.8912 38.5829L25.9306 36.8989L27.0168 35.2228L28.1412 33.5545L29.3018 31.8999L30.49 30.263L31.7038 28.6457L32.9323 27.05L34.1758 25.4838L35.4257 23.947L36.6755 22.4436L37.9211 20.9774L39.1561 19.5525L40.3783 18.1727L41.5772 16.84L42.7505 15.5584L43.8898 14.3317L44.993 13.1639L46.0516 12.0569L47.0633 11.0147L48.0199 10.0412L48.9147 9.14033L49.7459 8.31403L50.5047 7.56624L51.187 6.90088L51.7886 6.32385L52.3008 5.83317L52.7196 5.4367L53.0405 5.13641L53.1638 5.0265L53.2914 4.92051L53.421 4.82041L53.5528 4.7262L53.6888 4.63984L53.827 4.55741L53.9673 4.4789L54.1118 4.40824L54.2564 4.34347L54.403 4.28263L54.5518 4.22964L54.7028 4.18057L54.8537 4.13935L55.0067 4.10206L55.1598 4.07066L55.3149 4.04514L55.4701 4.02552L55.6253 4.00981L55.7826 4.00196L55.9399 4L56.095 4.00196L56.2523 4.00981ZM73.2869 53.8724L73.4484 53.894L73.6078 53.9215L73.7673 53.9549L73.9246 53.9941L74.0819 54.0393L74.2349 54.0903L74.388 54.1492L74.541 54.2139L74.6898 54.2826L74.8365 54.3592L74.981 54.4416L75.1213 54.5299L75.2616 54.6241L75.3976 54.7242L75.5294 54.8302L75.6591 54.9441L75.7845 55.0618L75.9035 55.1855L76.0183 55.3131L76.1267 55.4446L76.2287 55.578L76.3244 55.7154L76.4136 55.8548L76.4987 55.9961L76.5752 56.1413L76.6453 56.2885L76.7112 56.4377L76.7707 56.5888L76.8218 56.7399L76.8685 56.895L76.9089 57.05L76.9429 57.2071L76.9706 57.3641L76.9918 57.5231L77.0088 57.6801L77.0173 57.841L77.0195 58L77.0173 58.159L77.0088 58.318L76.9918 58.4769L76.9706 58.634L76.9429 58.7929L76.9089 58.948L76.8685 59.105L76.8218 59.2581L76.7707 59.4112L76.7112 59.5623L76.6453 59.7115L76.5752 59.8567L76.4987 60.002L76.4136 60.1452L76.3244 60.2846L76.2287 60.422L76.1267 60.5554L76.0183 60.685L75.9035 60.8126L75.7845 60.9362L60.157 76.3356V86.7439L61.222 86.5731L62.272 86.367L63.3093 86.1217L64.3339 85.841L65.3414 85.527L66.334 85.1776L67.3097 84.7949L68.2683 84.3808L69.21 83.9333L70.1304 83.4544L71.0338 82.9441L71.9159 82.4043L72.7767 81.8351L73.6164 81.2385L74.4326 80.6124L75.2254 79.9607L75.997 79.2816L76.741 78.577L77.4616 77.8469L78.1566 77.0932L78.8241 76.316L79.4639 75.5152L80.0761 74.6928L80.6585 73.8489L81.2111 72.9833L81.734 72.0981L82.225 71.1953L82.6842 70.2709L83.1114 69.3307L83.5046 68.3729L83.866 67.3974L84.1891 66.4082L84.4803 65.4014L84.7333 64.3827L84.9479 63.3484L85.1265 62.3023L85.2668 61.2424L85.3688 60.1727L85.4304 59.0913L85.4496 58L85.4156 57.0599L85.3093 56.0864L85.1392 55.0834L84.9033 54.051L84.6057 52.9912L84.2486 51.9078L83.8384 50.8008L83.3707 49.6722L82.8542 48.524L82.2909 47.3602L81.6788 46.1806L81.0262 44.9872L80.3311 43.7821L79.5999 42.5672L78.8326 41.3464L78.0334 40.1178L77.2044 38.8871L76.3478 37.6546L75.4678 36.42L74.5644 35.1894L73.6419 33.9627L72.7023 32.7419L71.7501 31.527L70.7851 30.3238L69.8115 29.1325L68.8316 27.9529L67.8475 26.791L66.8633 25.6447L65.8813 24.5182L64.9035 23.4132L63.9321 22.3317L62.9713 21.2758L62.0212 20.2453L61.0881 19.2463L60.1698 18.2767L59.2749 17.3386L58.3992 16.4377L57.5511 15.5721L56.7306 14.7458L55.942 13.9588L55.1513 14.7458L54.3308 15.5741L53.4827 16.4396L52.609 17.3425L51.712 18.2787L50.7938 19.2483L49.8606 20.2493L48.9105 21.2797L47.9497 22.3376L46.9783 23.419L46.0005 24.524L45.0185 25.6506L44.0344 26.7969L43.0502 27.9607L42.0703 29.1384L41.0968 30.3317L40.1339 31.5348L39.1795 32.7498L38.24 33.9706L37.3175 35.1973L36.4162 36.4279L35.5341 37.6624L34.6775 38.895L33.8485 40.1256L33.0493 41.3543L32.2819 42.5751L31.5507 43.79L30.8556 44.9951L30.2031 46.1865L29.593 47.366L29.0276 48.5319L28.5111 49.6781L28.0456 50.8047L27.6332 51.9117L27.2761 52.9951L26.9807 54.055L26.7447 55.0854L26.5725 56.0883L26.4684 57.0599L26.4323 58L26.4535 59.0913L26.513 60.1727L26.6151 61.2424L26.7554 62.3023L26.9339 63.3484L27.1486 64.3827L27.4037 65.4014L27.6927 66.4082L28.018 67.3974L28.3772 68.3729L28.7704 69.3307L29.1977 70.2709L29.6568 71.1953L30.1478 72.0981L30.6707 72.9833L31.2234 73.8489L31.8079 74.6928L32.418 75.5152L33.0578 76.316L33.7252 77.0932L34.4203 77.8469L35.1408 78.577L35.8848 79.2816L36.6564 79.9607L37.4493 80.6124L38.2676 81.2385L39.1072 81.8351L39.9681 82.4043L40.8502 82.9441L41.7515 83.4544L42.674 83.9333L43.6135 84.3808L44.5721 84.7949L45.5478 85.1776L46.5404 85.527L47.548 85.841L48.5725 86.1217L49.6098 86.367L50.662 86.5731L51.7248 86.7439V76.3356L36.0974 60.9362L35.9783 60.8126L35.8636 60.685L35.7551 60.5554L35.6531 60.422L35.5575 60.2846L35.4682 60.1452L35.3853 60.002L35.3066 59.8567L35.2365 59.7115L35.1706 59.5623L35.1132 59.4112L35.0601 59.2581L35.0133 59.105L34.9729 58.948L34.9389 58.7929L34.9113 58.634L34.89 58.4769L34.8751 58.318L34.8645 58.159L34.8624 58L34.8645 57.841L34.8751 57.6801L34.89 57.5231L34.9113 57.3641L34.9389 57.2071L34.9729 57.05L35.0133 56.895L35.0601 56.7399L35.1132 56.5888L35.1706 56.4377L35.2365 56.2885L35.3066 56.1413L35.3853 55.9961L35.4682 55.8548L35.5575 55.7154L35.6531 55.578L35.7551 55.4446L35.8636 55.3131L35.9783 55.1855L36.0974 55.0618L36.2228 54.9441L36.3524 54.8302L36.4864 54.7242L36.6203 54.6241L36.7606 54.5299L36.9008 54.4416L37.0454 54.3592L37.1921 54.2826L37.343 54.2139L37.4939 54.1492L37.6469 54.0903L37.8021 54.0393L37.9573 53.9941L38.1146 53.9549L38.274 53.9215L38.4334 53.894L38.5949 53.8724L38.7565 53.8567L38.918 53.8469L39.0796 53.8449L39.2411 53.8469L39.4027 53.8567L39.5621 53.8724L39.7236 53.894L39.8831 53.9215L40.0425 53.9549L40.1998 53.9941L40.3571 54.0393L40.5101 54.0903L40.6632 54.1492L40.8162 54.2139L40.965 54.2826L41.1117 54.3592L41.2562 54.4416L41.3965 54.5299L41.5368 54.6241L41.6728 54.7242L41.8046 54.8302L41.9343 54.9441L42.0597 55.0618L51.7248 64.5868V41.3837L51.729 41.213L51.7397 41.0422L51.7567 40.8754L51.7801 40.7085L51.8119 40.5456L51.8481 40.3847L51.8906 40.2257L51.9395 40.0687L51.9947 39.9156L52.0564 39.7664L52.1223 39.6173L52.1945 39.474L52.2732 39.3327L52.3561 39.1933L52.4454 39.0599L52.5389 38.9284L52.6367 38.8027L52.7387 38.6791L52.8471 38.5594L52.9598 38.4455L53.0767 38.3356L53.1957 38.2296L53.3211 38.1276L53.4508 38.0294L53.5826 37.9392L53.7186 37.8508L53.8589 37.7704L54.0034 37.6938L54.1501 37.6212L54.2989 37.5564L54.4519 37.4956L54.6071 37.4406L54.7665 37.3935L54.9281 37.3503L55.0896 37.315L55.2575 37.2836L55.4255 37.2601L55.5955 37.2444L55.7677 37.2326L55.942 37.2306L56.1142 37.2326L56.2863 37.2444L56.4585 37.2601L56.6264 37.2836L56.7922 37.315L56.9559 37.3503L57.1153 37.3935L57.2747 37.4406L57.4299 37.4956L57.5829 37.5564L57.7339 37.6212L57.8805 37.6938L58.0229 37.7704L58.1632 37.8508L58.2993 37.9392L58.4311 38.0294L58.5607 38.1276L58.6861 38.2296L58.8073 38.3356L58.9221 38.4455L59.0347 38.5594L59.1431 38.6791L59.2452 38.8027L59.3451 38.9284L59.4386 39.0599L59.5257 39.1933L59.6086 39.3327L59.6873 39.474L59.7596 39.6173L59.8255 39.7664L59.8871 39.9156L59.9424 40.0687L59.9913 40.2257L60.0338 40.3847L60.072 40.5456L60.1018 40.7085L60.1252 40.8754L60.1422 41.0422L60.1528 41.213L60.157 41.3837V64.5868L69.8222 55.0618L69.9476 54.9441L70.0772 54.8302L70.2111 54.7242L70.3451 54.6241L70.4853 54.5299L70.6256 54.4416L70.7702 54.3592L70.9168 54.2826L71.0678 54.2139L71.2187 54.1492L71.3717 54.0903L71.5269 54.0393L71.6821 53.9941L71.8394 53.9549L71.9988 53.9215L72.1582 53.894L72.3197 53.8724L72.4813 53.8567L72.6428 53.8469L72.8044 53.8449L72.9659 53.8469L73.1275 53.8567L73.2869 53.8724Z" fill="#322153"/>
<path d="M137.92 94.344C128.832 94.344 122.56 92.232 119.104 88.008C116.736 85.064 115.552 81.032 115.552 75.912C115.552 73.544 115.808 70.952 116.32 68.136L119.68 48.936C122.688 31.784 133.184 23.208 151.168 23.208C158.592 23.208 164.224 24.808 168.064 28.008C171.904 31.144 173.824 35.464 173.824 40.968C173.824 43.208 173.504 45.48 172.864 47.784C172.288 50.088 171.712 51.816 171.136 52.968L170.176 54.696H153.184C154.848 52.392 155.68 49.736 155.68 46.728C155.68 40.968 153.28 38.088 148.48 38.088C142.016 38.088 138.144 41.832 136.864 49.32L133.6 67.752C133.28 69.48 133.12 71.176 133.12 72.84C133.12 77.256 135.712 79.464 140.896 79.464C146.144 79.464 149.504 76.84 150.976 71.592H143.104L145.024 60.936H170.464L168.928 69.192L168.448 71.976C165.76 86.888 155.584 94.344 137.92 94.344ZM216.2 23.88C223.496 23.88 228.68 25.48 231.752 28.68C234.056 31.112 235.208 34.184 235.208 37.896C235.208 39.176 235.08 40.52 234.824 41.928L233.48 49.416C232.712 53.576 231.368 56.936 229.448 59.496C227.592 62.056 225.512 63.88 223.208 64.968L231.944 93H212.552L204.488 67.176H198.536L194.6 93H176.168L188.36 23.88H216.2ZM210.152 38.856H202.952L200.456 55.56H207.176C210.568 55.56 213 54.76 214.472 53.16C215.944 51.496 216.68 49.32 216.68 46.632C216.68 41.448 214.504 38.856 210.152 38.856ZM276.043 23.208C291.467 23.208 299.179 29.512 299.179 42.12C299.179 44.232 298.955 46.504 298.507 48.936L295.147 68.136C293.611 77.032 290.283 83.624 285.163 87.912C280.043 92.2 272.843 94.344 263.563 94.344C254.283 94.344 247.819 92.2 244.171 87.912C241.675 84.968 240.427 80.904 240.427 75.72C240.427 73.416 240.683 70.888 241.195 68.136L244.555 48.936C247.563 31.784 258.059 23.208 276.043 23.208ZM266.155 79.464C269.355 79.464 271.915 78.632 273.835 76.968C275.755 75.304 277.099 72.232 277.867 67.752L281.131 49.32C281.323 48.04 281.419 46.888 281.419 45.864C281.419 40.68 278.795 38.088 273.547 38.088C266.955 38.216 263.019 41.96 261.739 49.32L258.475 67.752C258.219 69.352 258.091 71.016 258.091 72.744C258.091 77.224 260.779 79.464 266.155 79.464ZM339.793 23.208C355.217 23.208 362.929 29.512 362.929 42.12C362.929 44.232 362.705 46.504 362.257 48.936L358.897 68.136C357.361 77.032 354.033 83.624 348.913 87.912C343.793 92.2 336.593 94.344 327.313 94.344C318.033 94.344 311.569 92.2 307.921 87.912C305.425 84.968 304.177 80.904 304.177 75.72C304.177 73.416 304.433 70.888 304.945 68.136L308.305 48.936C311.313 31.784 321.809 23.208 339.793 23.208ZM329.905 79.464C333.105 79.464 335.665 78.632 337.585 76.968C339.505 75.304 340.849 72.232 341.617 67.752L344.881 49.32C345.073 48.04 345.169 46.888 345.169 45.864C345.169 40.68 342.545 38.088 337.297 38.088C330.705 38.216 326.769 41.96 325.489 49.32L322.225 67.752C321.969 69.352 321.841 71.016 321.841 72.744C321.841 77.224 324.529 79.464 329.905 79.464ZM396.439 23.88L406.711 57L428.791 23.88H446.935L434.743 93H417.367L424.279 54.024L409.495 77.256H396.919L390.391 54.024L383.479 93H366.199L378.391 23.88H396.439Z" fill="#322153"/>
</g>
<defs>
<clipPath id="clip0">
<rect width="467" height="116" fill="white"/>
</clipPath>
</defs>
</svg>
